<?xml version="1.0" encoding="UTF-8"?>
<svg id="uuid-5ad29a12-5f7c-46e7-a0f4-cf2d77d30873" data-name="Layer 2" xmlns="http://www.w3.org/2000/svg" viewBox="0 0 176.98 161.69">
  <defs>
    <style>
      .uuid-a8a0835a-6bc4-41a4-a4ce-c00c696a65ee {
        fill: #191919;
      }

      .uuid-5023492f-c431-4760-9438-7f57e1911e7d {
        fill: #e5e5e5;
      }
    </style>
  </defs>
  <g id="uuid-067a5d14-8071-448d-8911-fb91aeb7c40c" data-name="icon">
    <g id="uuid-624d5305-14bf-44b2-86b6-6937624e1ade" data-name="body">
      <path class="uuid-a8a0835a-6bc4-41a4-a4ce-c00c696a65ee" d="M91.55,161.69c-1.89,0-3.76-.09-5.58-.29-12.81-1.37-22.09-6.51-26.77-16.85-.53-1.53-.86-3.05-1-4.55-7.08,2.43-14.33,3.2-21.57,2.29-7.45-.89-17.83-3.44-24.98-10.46-5.51-5.22-7.44-14.63-4.29-20.97,1.79-3.9,4.92-7.43,9.85-11.11C5.26,94.28-1.1,84.54.16,73.55l.03-.21c2.85-17.28,20.47-26.98,35.89-28.82-.75-1.95-1.13-3.85-1.13-5.67-.36-12.32,5.14-22.47,15.89-29.35,20.02-12.79,52.92-11.67,71.08-2.6,5.64,2.68,19.01,10.47,21.19,24.72.93,5.63-.29,11.79-3.37,17.03,13.7.93,25.16,5.97,33.01,18.19,4.39,6.83,5.57,18.12,2.5,25.89-4.26,9.07-11.22,16.22-22.76,17.06,2.56,13.73-1.8,22.76-8.8,30.65-11.53,12.99-29.14,21.25-52.16,21.25Z"/>
      <path class="uuid-5023492f-c431-4760-9438-7f57e1911e7d" d="M55.91,60.03c-8.35,0-16.33-7.22-19.52-14.77l-.3-.7.76-.08c1.43-.15,2.92-.25,4.43-.29h1.11c6.53.03,13.28.05,19.1,2.97,2.93,1.63,4.29,4.08,3.75,6.71-.64,3.14-3.75,5.63-7.58,6.05-.58.07-1.16.11-1.74.11Z"/>
      <path class="uuid-5023492f-c431-4760-9438-7f57e1911e7d" d="M58.19,140.01l-.04-.55c-.57-8.49,5.72-17.68,14.62-21.37,4.53-1.79,7.76-1.69,9.62.28,1.91,2.33.14,5.74-1.94,7.95-4.54,4.55-10.37,8.44-17.85,11.92-1.25.58-2.55,1.11-3.88,1.58l-.52.18Z"/>
      <path class="uuid-5023492f-c431-4760-9438-7f57e1911e7d" d="M36.61,104.05c-6.12,0-12.57-1.32-18.48-3.91l-.9-.39.8-.57c6.71-4.84,14.94-8.08,23.17-9.13,6.34-.86,10.52-.5,12.77,1.11,1.98,1.54,2.09,3.22,1.84,4.37-.74,3.31-5.38,6.3-8.38,6.99-3.35,1.03-7.02,1.54-10.81,1.54Z"/>
    </g>
    <g id="uuid-cb9dec98-210f-4a78-a729-e94cad5c2f8a" data-name="emotion">
      <path class="uuid-5023492f-c431-4760-9438-7f57e1911e7d" d="M112.31,94.41c-6.67,0-12.09-6.93-12.09-15.45s5.42-15.45,12.09-15.45c6.67,0,12.09,6.93,12.09,15.45s-5.42,15.45-12.09,15.45Z"/>
      <path class="uuid-5023492f-c431-4760-9438-7f57e1911e7d" d="M143.53,94.41c-6.68,0-12.12-6.93-12.12-15.45s5.44-15.45,12.12-15.45c6.68,0,12.12,6.93,12.12,15.45s-5.44,15.45-12.12,15.45Z"/>
      <path class="uuid-5023492f-c431-4760-9438-7f57e1911e7d" d="M128.17,102.2c-5.2,0-6.24-.84-6.24-2.18s1.04-2.18,6.24-2.18c5.2,0,6.24.84,6.24,2.18s-1.04,2.18-6.24,2.18Z"/>
    </g>
  </g>
</svg>