<?xml version="1.0" encoding="UTF-8"?>
<svg id="uuid-45697d41-1d05-4bd9-b66f-4e956e998cd9" data-name="Layer 2" xmlns="http://www.w3.org/2000/svg" viewBox="0 0 606.37 144.91">
  <defs>
    <style>
      .uuid-a44d50f9-a3fe-4e4a-a8b6-2e5cd6ba6905 {
        fill: #22d4ae;
      }

      .uuid-5a6d3fb7-231b-47ce-a561-4b078555134e {
        fill: #1093bd;
      }

      .uuid-09d24f45-8b5d-4d34-a842-cea2fdb69ea4 {
        fill: #f7bcbc;
      }

      .uuid-840e436a-0f7b-49b1-892d-585e0d0f81e0 {
        fill: #e5e5e5;
      }

      .uuid-d5338c94-bd75-4f44-a78c-b43a4ac57855 {
        fill: #f4a11c;
      }

      .uuid-4229f51a-531e-48d0-8bad-a962f383ecca {
        fill: #de2b52;
      }

      .uuid-285adbdb-99a5-404c-ad64-a801e9c7edce {
        fill: #99e218;
      }

      .uuid-da5e71e4-e1f3-45e4-95bd-ed98ab8fe1ef {
        fill: #6517e9;
      }
    </style>
  </defs>
  <g id="uuid-57bb436b-cf70-4a8a-b5a6-066f14c265e9" data-name="text">
    <g>
      <path class="uuid-840e436a-0f7b-49b1-892d-585e0d0f81e0" d="M67.42,80.57c-.7,0-1.42.17-2.17.51-.75.34-1.85,1.07-3.3,2.18-2.2,1.6-4.43,2.73-6.68,3.38-2.25.66-4.98.98-8.17.98-3.8,0-7.26-.81-10.39-2.44-3.12-1.62-5.6-4.08-7.42-7.38-1.83-3.3-2.74-7.4-2.74-12.29,0-3.1.44-5.67,1.31-7.71.87-2.04,2.03-3.55,3.45-4.55s2.99-1.49,4.69-1.49c1.9,0,3.4.51,4.5,1.53,1.1,1.02,1.65,2.47,1.65,4.37v2.18c0,3.64,1.1,6.63,3.3,8.98,2.2,2.35,5.52,3.53,9.97,3.53s8.11-1.21,10.84-3.64c2.72-2.42,4.09-5.6,4.09-9.53s-1.26-7.52-3.79-10.77c-2.53-3.25-6.13-5.84-10.8-7.78-4.68-1.94-10.21-2.91-16.61-2.91-8,0-14.94,1.62-20.81,4.87-5.88,3.25-10.4,7.67-13.57,13.28C1.59,61.47,0,67.79,0,74.82s1.65,13.03,4.95,18.15c3.3,5.12,7.8,9.09,13.5,11.93,5.7,2.84,12.1,4.26,19.2,4.26,6.65,0,12.45-1.1,17.4-3.31,4.95-2.21,8.8-5.13,11.55-8.77,2.75-3.64,4.12-7.57,4.12-11.79,0-1.65-.3-2.84-.9-3.56-.6-.73-1.4-1.12-2.4-1.16Z"/>
      <path class="uuid-840e436a-0f7b-49b1-892d-585e0d0f81e0" d="M132.07,37.72c-4.2,0-7.9,1.15-11.1,3.46-3.2,2.3-5.73,5.86-7.58,10.66-.12.32-.23.65-.34.98l-1.08-7.89c-.35-2.76-.93-4.66-1.72-5.67-.8-1.02-1.9-1.53-3.3-1.53-1.05,0-2.3.23-3.75.69s-3.22,1.1-5.32,1.93l-15.08,5.75c-2.1.83-3.61,1.76-4.54,2.8-.93,1.04-1.39,2.32-1.39,3.82,0,1.26.3,2.3.9,3.13.6.83,1.47,1.58,2.62,2.26l.9.58c.9.49,1.58,1.13,2.02,1.93.45.8.68,2.22.68,4.26v22.48c0,2.43-.15,4.09-.45,4.98-.3.9-.78,1.59-1.42,2.07l-.9.73c-1.15.83-2.03,1.71-2.62,2.66-.6.95-.9,2.12-.9,3.53,0,1.89.6,3.38,1.8,4.47,1.2,1.09,2.82,1.64,4.88,1.64h36.45c2.15,0,3.81-.56,4.99-1.67,1.17-1.12,1.76-2.59,1.76-4.44,0-1.6-.4-2.97-1.2-4.11-.8-1.14-2.13-1.83-3.98-2.07l-4.65-.73c-1.4-.24-2.4-.92-3-2.04-.6-1.12-.9-2.79-.9-5.02v-18.99c0-2.62.2-4.78.6-6.47.4-1.7.95-2.98,1.65-3.86.7-.87,1.5-1.31,2.4-1.31.95,0,1.67.3,2.17.91.5.61.75,1.56.75,2.87v3.06c0,3.15,1.04,5.64,3.11,7.46,2.07,1.82,5.19,2.73,9.34,2.73s7.15-1.42,9.6-4.26c2.45-2.84,3.67-7.31,3.67-13.42s-1.34-10.69-4.01-13.75-6.36-4.58-11.06-4.58Z"/>
      <path class="uuid-840e436a-0f7b-49b1-892d-585e0d0f81e0" d="M220.05,73c2.35-2.18,3.53-5.29,3.53-9.31,0-4.66-1.31-8.96-3.94-12.91-2.62-3.95-6.4-7.12-11.33-9.49-4.93-2.38-10.84-3.56-17.74-3.56-8.55,0-15.76,1.6-21.64,4.8-5.88,3.2-10.31,7.57-13.31,13.09s-4.5,11.81-4.5,18.84,1.59,12.95,4.76,18.19c3.17,5.24,7.64,9.3,13.39,12.19,5.75,2.89,12.47,4.33,20.17,4.33,6.9,0,12.87-1.13,17.92-3.38,5.05-2.26,8.95-5.21,11.7-8.88,2.75-3.66,4.12-7.58,4.12-11.75,0-1.65-.35-2.81-1.05-3.49-.7-.68-1.48-1.02-2.33-1.02-.7-.05-1.45.12-2.25.51-.8.39-1.88,1.09-3.23,2.11-2.25,1.79-4.79,3.14-7.61,4.04-2.83.9-5.64,1.35-8.44,1.35-6.15,0-11.06-1.9-14.74-5.71-1.71-1.77-3-4-3.92-6.66h30.58c4.2,0,7.47-1.09,9.83-3.27ZM188.7,66.96h-10.6c-.02-.53-.05-1.05-.05-1.6,0-3.3.38-5.94,1.12-7.93.75-1.99,1.76-3.43,3.04-4.33,1.27-.9,2.66-1.35,4.16-1.35,1.8,0,3.42.81,4.88,2.44,1.45,1.63,2.17,4.3,2.17,8.04,0,3.15-1.58,4.73-4.72,4.73Z"/>
      <path class="uuid-840e436a-0f7b-49b1-892d-585e0d0f81e0" d="M171.71,21.64c1.88,1.94,4.81,3.86,8.81,5.75l10.88,5.24c1.35.63,2.75.92,4.2.87,1.45-.05,2.6-.51,3.45-1.38.95-1.07,1.34-2.23,1.16-3.49-.18-1.26-.59-2.59-1.24-4l-4.72-10.84c-1.85-4.27-4.04-7.64-6.56-10.11-2.53-2.47-5.84-3.35-9.94-2.62-3.45.58-6.05,2.22-7.8,4.91-1.75,2.69-2.38,5.52-1.88,8.48.55,2.86,1.76,5.26,3.64,7.2Z"/>
      <path class="uuid-840e436a-0f7b-49b1-892d-585e0d0f81e0" d="M468.23,2.17c-2.89-1.98-5.89-2.61-9.02-1.88-3.13.72-5.54,2.32-7.23,4.8-1.59,2.44-2.39,5.01-2.38,7.71,0,2.7.78,6.12,2.35,10.26l4.19,11.32c.53,1.39,1.34,2.57,2.42,3.54,1.08.97,2.22,1.44,3.44,1.4,1.42-.11,2.51-.68,3.26-1.71.75-1.03,1.38-2.28,1.89-3.74l4.13-11.08c1.63-4.36,2.4-8.3,2.3-11.83-.1-3.53-1.88-6.46-5.33-8.79Z"/>
      <path class="uuid-840e436a-0f7b-49b1-892d-585e0d0f81e0" d="M360.97,95.12l-.9-.73c-.6-.48-1.06-1.17-1.39-2.07-.33-.9-.49-2.56-.49-4.98v-27.14c0-6.84-1.81-12.29-5.44-16.37-3.62-4.07-8.46-6.11-14.51-6.11-4.15,0-8.62,1.25-13.43,3.75-4,2.08-8.58,5.52-13.73,10.29-.89-3.05-2.3-5.7-4.27-7.92-3.6-4.07-8.45-6.11-14.55-6.11-4.1,0-8.55,1.25-13.35,3.75-3.69,1.92-7.9,5-12.6,9.21v-6.62c0-1.84-.51-3.36-1.54-4.55-1.03-1.19-2.46-1.78-4.31-1.78-1.6,0-3.18.21-4.72.62-1.55.41-3.6,1.1-6.15,2.07l-14.55,5.67c-2.15.83-3.67,1.76-4.58,2.8-.9,1.04-1.35,2.32-1.35,3.82,0,1.26.3,2.3.9,3.13.6.83,1.47,1.58,2.62,2.26l.9.58c.9.49,1.58,1.13,2.02,1.93.45.8.68,2.22.68,4.26v22.48c0,2.43-.15,4.09-.45,4.98-.3.9-.78,1.59-1.42,2.07l-.9.73c-1.15.78-2.03,1.65-2.62,2.62-.6.97-.9,2.16-.9,3.56,0,1.89.6,3.38,1.8,4.47,1.2,1.09,2.82,1.64,4.88,1.64h29.17c4,0,6-2.04,6-6.11,0-2.18-.9-3.95-2.7-5.31l-1.05-.87c-.65-.53-1.1-1.3-1.35-2.29s-.38-2.83-.38-5.49v-25.19l.23-.2c1.4-1.21,2.82-2.08,4.27-2.62,1.45-.53,2.9-.8,4.35-.8,2.25,0,3.99.76,5.21,2.29,1.22,1.53,1.84,3.72,1.84,6.58v19.93c0,2.67-.12,4.5-.38,5.49-.25.99-.73,1.76-1.42,2.29l-1.05.87c-1.75,1.36-2.62,3.13-2.62,5.31,0,4.07,1.97,6.11,5.92,6.11h29.1c3.95,0,5.92-2.04,5.92-6.11,0-2.18-.88-3.95-2.62-5.31l-1.05-.87c-.7-.53-1.17-1.3-1.42-2.29-.25-.99-.38-2.83-.38-5.49v-25.19l.22-.2c1.4-1.21,2.82-2.08,4.28-2.62,1.45-.53,2.9-.8,4.35-.8,2.25,0,3.99.76,5.21,2.29,1.22,1.53,1.84,3.72,1.84,6.58v19.93c0,2.67-.13,4.5-.38,5.49-.25.99-.7,1.76-1.35,2.29l-1.12.87c-1.75,1.36-2.62,3.13-2.62,5.31,0,4.07,2,6.11,6,6.11h29.17c2.05,0,3.68-.55,4.88-1.64,1.2-1.09,1.8-2.58,1.8-4.47,0-1.41-.31-2.57-.94-3.49-.63-.92-1.49-1.82-2.59-2.69Z"/>
      <path class="uuid-840e436a-0f7b-49b1-892d-585e0d0f81e0" d="M438.15,73c2.35-2.18,3.53-5.29,3.53-9.31,0-4.66-1.31-8.96-3.94-12.91-2.62-3.95-6.4-7.12-11.33-9.49-4.93-2.38-10.84-3.56-17.74-3.56-8.55,0-15.76,1.6-21.64,4.8-5.88,3.2-10.31,7.57-13.31,13.09s-4.5,11.81-4.5,18.84,1.59,12.95,4.76,18.19c3.17,5.24,7.64,9.3,13.39,12.19,5.75,2.89,12.47,4.33,20.17,4.33,6.9,0,12.87-1.13,17.92-3.38,5.05-2.26,8.95-5.21,11.7-8.88,2.75-3.66,4.12-7.58,4.12-11.75,0-1.65-.35-2.81-1.05-3.49-.7-.68-1.48-1.02-2.33-1.02-.7-.05-1.45.12-2.25.51-.8.39-1.88,1.09-3.23,2.11-2.25,1.79-4.79,3.14-7.61,4.04-2.83.9-5.64,1.35-8.44,1.35-6.15,0-11.06-1.9-14.74-5.71-1.71-1.77-3-4-3.92-6.66h30.58c4.2,0,7.47-1.09,9.83-3.27ZM406.8,66.96h-10.6c-.02-.53-.05-1.05-.05-1.6,0-3.3.38-5.94,1.12-7.93.75-1.99,1.76-3.43,3.04-4.33,1.27-.9,2.66-1.35,4.16-1.35,1.8,0,3.42.81,4.88,2.44,1.45,1.63,2.17,4.3,2.17,8.04,0,3.15-1.58,4.73-4.72,4.73Z"/>
      <path class="uuid-840e436a-0f7b-49b1-892d-585e0d0f81e0" d="M556.72,89.59c-.4,0-.75.06-1.05.18-.3.12-.58.25-.83.4-.3.19-.61.36-.94.51-.33.15-.76.22-1.31.22-.95,0-1.61-.29-1.99-.87s-.56-1.21-.56-1.89v-30.05c0-6.3-2.25-11.26-6.75-14.88-4.5-3.61-11.55-5.42-21.15-5.42-8.95,0-16.39.98-22.31,2.95-5.92,1.96-10.36,4.46-13.31,7.49-2.95,3.03-4.42,6.15-4.42,9.35s1.06,5.71,3.19,7.53c2.12,1.82,5.41,2.73,9.86,2.73,5,0,8.84-1.07,11.51-3.2,2.67-2.13,4.01-5.21,4.01-9.24v-4c0-.97.42-1.73,1.27-2.29.85-.56,1.85-.84,3-.84,1.6,0,2.84.52,3.71,1.56.87,1.04,1.31,2.44,1.31,4.18v16.83c-.05,0-.1-.02-.15-.02-2.05-.29-4.35-.44-6.9-.44-10.15,0-18.24,1.93-24.26,5.78-6.03,3.86-9.04,9.13-9.04,15.82,0,4.95,1.91,9.05,5.74,12.29,3.82,3.25,9.04,4.87,15.64,4.87,4.95,0,9.6-.86,13.95-2.58,3.83-1.51,6.8-3.59,8.93-6.21.88,1.88,2.3,3.54,4.31,4.97,3.57,2.55,7.99,3.82,13.24,3.82,3.95,0,7.34-.75,10.16-2.25,2.82-1.5,5.01-3.41,6.56-5.71,1.55-2.3,2.33-4.64,2.33-7.02,0-1.26-.33-2.34-.98-3.24-.65-.9-1.57-1.35-2.77-1.35ZM511.76,91.37c-1.23-1.29-1.84-3.04-1.84-5.27s.59-3.86,1.76-5.17c1.17-1.31,2.74-1.96,4.69-1.96,1.05,0,1.99.12,2.81.36.26.08.52.19.79.29v13.16c-.94.34-1.99.51-3.15.51-2.15,0-3.84-.64-5.06-1.93Z"/>
      <path class="uuid-840e436a-0f7b-49b1-892d-585e0d0f81e0" d="M605.47,97.74c-.6-.97-1.45-1.84-2.55-2.62l-.97-.73c-.6-.48-1.06-1.17-1.39-2.07-.33-.9-.49-2.56-.49-4.98v-43.29c0-1.84-.5-3.36-1.5-4.55-1-1.19-2.45-1.78-4.35-1.78-1.55,0-3.11.21-4.69.62-1.58.41-3.64,1.1-6.19,2.07l-14.7,5.67c-2.15.83-3.67,1.76-4.58,2.8-.9,1.04-1.35,2.32-1.35,3.82,0,1.26.3,2.3.9,3.13.6.83,1.47,1.58,2.62,2.26l.9.58c.9.49,1.58,1.13,2.02,1.93.45.8.68,2.22.68,4.26v22.48c0,2.43-.15,4.09-.45,4.98-.3.9-.78,1.59-1.42,2.07l-.9.73c-1.15.78-2.03,1.65-2.62,2.62-.6.97-.9,2.16-.9,3.56,0,1.89.6,3.38,1.8,4.47,1.2,1.09,2.82,1.64,4.88,1.64h29.47c2.1,0,3.74-.55,4.91-1.64,1.17-1.09,1.76-2.58,1.76-4.47,0-1.41-.3-2.59-.9-3.56Z"/>
      <path class="uuid-840e436a-0f7b-49b1-892d-585e0d0f81e0" d="M571.38,28.41c3.08,2.57,7.29,3.86,12.64,3.86s9.49-1.29,12.56-3.86c3.08-2.57,4.61-6.06,4.61-10.48s-1.54-7.82-4.61-10.37c-3.08-2.55-7.26-3.82-12.56-3.82s-9.56,1.27-12.64,3.82c-3.08,2.55-4.61,6-4.61,10.37s1.54,7.91,4.61,10.48Z"/>
    </g>
    <path class="uuid-09d24f45-8b5d-4d34-a842-cea2fdb69ea4" d="M502.4,127.03h103.52v17.88h-103.52c-4.93,0-8.94-4-8.94-8.94h0c0-4.93,4-8.94,8.94-8.94Z"/>
    <rect class="uuid-4229f51a-531e-48d0-8bad-a962f383ecca" x="406.93" y="127.03" width="112.46" height="17.88" rx="8.94" ry="8.94"/>
    <rect class="uuid-d5338c94-bd75-4f44-a78c-b43a4ac57855" x="320.18" y="127.03" width="112.46" height="17.88" rx="8.94" ry="8.94"/>
    <rect class="uuid-285adbdb-99a5-404c-ad64-a801e9c7edce" x="233.65" y="127.03" width="112.46" height="17.88" rx="8.94" ry="8.94"/>
    <rect class="uuid-a44d50f9-a3fe-4e4a-a8b6-2e5cd6ba6905" x="147.12" y="127.03" width="112.46" height="17.88" rx="8.94" ry="8.94"/>
    <rect class="uuid-5a6d3fb7-231b-47ce-a561-4b078555134e" x="60.6" y="127.03" width="112.46" height="17.88" rx="8.94" ry="8.94"/>
    <path class="uuid-da5e71e4-e1f3-45e4-95bd-ed98ab8fe1ef" d="M0,127.03h77.59c4.93,0,8.94,4,8.94,8.94h0c0,4.93-4,8.94-8.94,8.94H0v-17.88H0Z"/>
  </g>
</svg>